# xmcd
#
# Track frame offsets:
#	150
#	16776
#	35926
#	52333
#	81632
#	103116
#	118105
#	134715
#	156246
#	173800
#	190459
#	207578
#	226611
#	243051
#	260254
#	274151
#	289435
#	308615
#
# Disc length: 4337 seconds
#
# Revision: 3
# Processed by: cddbd v1.5.2PL0 Copyright (c) Steve Scherf et al.
# Submitted via: audiograbber 1.83.01
#
DISCID=1210ef12
DTITLE=Various Artist - SFG343
DYEAR=2014
DGENRE=Karaoke
TTITLE0=Katy Perry - This is how we do
TTITLE1=Script - Superheroes
TTITLE2=Saint Motel - My type
TTITLE3=Paolo Nutini - Iron sky
TTITLE4=Kiesza - Giant in my heart
TTITLE5=Ella Eyre - If I go
TTITLE6=David Guetta f. Sam Martin - Lovers on the sun
TTITLE7=Adam Levine - Lost stars
TTITLE8=Ariana Grande f. Zedd - Break free
TTITLE9=Pharrell Williams - Come get it bae
TTITLE10=Sigma f. Paloma Faith - Changing
TTITLE11=Rixton - Wait on me
TTITLE12=Rizzle Kicks - Tell her
TTITLE13=DJ Fresh f. Ellie Goulding - Flashlight
TTITLE14=Charli XCX - Boom clap
TTITLE15=Royal Blood - Figure it out
TTITLE16=Sam Smith - I'm not the only one
TTITLE17=Wankelmut f. Emma Louise - My head is a jungle
EXTD=
EXTT0=
EXTT1=
EXTT2=
EXTT3=
EXTT4=
EXTT5=
EXTT6=
EXTT7=
EXTT8=
EXTT9=
EXTT10=
EXTT11=
EXTT12=
EXTT13=
EXTT14=
EXTT15=
EXTT16=
EXTT17=
PLAYORDER=
